<svg xmlns="http://www.w3.org/2000/svg" xmlns:xlink="http://www.w3.org/1999/xlink" width="1000" zoomAndPan="magnify" viewBox="0 0 750 749.999995" height="1000" preserveAspectRatio="xMidYMid meet" version="1.0"><defs><clipPath id="61358f30cd"><path d="M 31.203125 98 L 506 98 L 506 566 L 31.203125 566 Z M 31.203125 98 " clip-rule="nonzero"/></clipPath><clipPath id="9a59390acd"><path d="M 268 75 L 718.953125 75 L 718.953125 675 L 268 675 Z M 268 75 " clip-rule="nonzero"/></clipPath></defs><g clip-path="url(#61358f30cd)"><path fill="#ff6d1f" d="M 197.449219 98.292969 C 213.691406 98.292969 227.558594 104.9375 239.046875 118.230469 L 276.484375 160.859375 C 287.972656 174.152344 293.71875 190.191406 293.71875 208.984375 L 293.71875 296.226562 C 293.605469 296.425781 293.496094 296.628906 293.386719 296.828125 C 285.234375 311.894531 283.398438 320.394531 281.679688 351.023438 C 279.328125 393.011719 273.992188 408.171875 252.992188 432.566406 C 244.953125 441.902344 238.371094 451.761719 238.371094 454.472656 C 238.371094 457.183594 243.898438 463.835938 250.652344 469.257812 C 257.410156 474.675781 262.9375 481.539062 262.9375 484.503906 C 262.9375 487.472656 265.394531 493.429688 268.402344 497.746094 C 271.410156 502.066406 272.835938 507.28125 271.570312 509.34375 C 270.300781 511.402344 272 516.125 275.339844 519.832031 C 280.011719 525.027344 280.875 529.941406 279.085938 541.183594 C 277.628906 550.351562 278.269531 557.609375 280.808594 560.683594 C 282.835938 563.144531 287.390625 564.628906 293.71875 565.167969 L 293.71875 565.816406 L 188.535156 565.816406 L 188.535156 240.613281 C 188.535156 236.027344 187.148438 232.132812 184.375 228.925781 L 177.839844 221.363281 C 175.066406 218.152344 171.699219 216.546875 167.738281 216.546875 L 31.203125 216.546875 L 31.203125 98.292969 Z M 505.269531 216.546875 L 323.429688 216.546875 L 323.429688 98.292969 L 505.269531 98.292969 Z M 505.269531 216.546875 " fill-opacity="1" fill-rule="nonzero"/></g><path fill="#000000" d="M 212.503906 98.292969 C 228.746094 98.292969 242.613281 104.9375 254.101562 118.230469 L 291.539062 160.859375 C 303.027344 174.152344 308.773438 190.191406 308.773438 208.984375 L 308.773438 296.226562 C 308.660156 296.425781 308.550781 296.625 308.441406 296.828125 C 300.289062 311.894531 298.453125 320.394531 296.734375 351.023438 C 294.382812 393.011719 289.046875 408.171875 268.046875 432.566406 C 260.003906 441.902344 253.425781 451.761719 253.425781 454.472656 C 253.425781 457.183594 258.953125 463.835938 265.707031 469.257812 C 272.464844 474.675781 277.992188 481.539062 277.992188 484.503906 C 277.992188 487.472656 280.449219 493.429688 283.457031 497.746094 C 286.464844 502.066406 287.890625 507.28125 286.625 509.34375 C 285.355469 511.402344 287.054688 516.125 290.390625 519.832031 C 295.066406 525.027344 295.929688 529.941406 294.140625 541.183594 C 292.683594 550.351562 293.320312 557.609375 295.863281 560.683594 C 297.890625 563.144531 302.441406 564.628906 308.773438 565.167969 L 308.773438 565.816406 L 203.589844 565.816406 L 203.589844 240.613281 C 203.589844 236.027344 202.203125 232.132812 199.429688 228.925781 L 192.894531 221.363281 C 190.121094 218.152344 186.753906 216.546875 182.792969 216.546875 L 46.257812 216.546875 L 46.257812 98.292969 Z M 520.324219 216.546875 L 338.484375 216.546875 L 338.484375 98.292969 L 520.324219 98.292969 Z M 520.324219 216.546875 " fill-opacity="1" fill-rule="nonzero"/><path fill="#ff6d1f" d="M 524.992188 96.085938 C 519.839844 102.609375 519.8125 103.621094 524.585938 111.964844 C 530.195312 121.78125 533.171875 122.679688 542.058594 117.230469 C 549.257812 112.8125 549.78125 102.234375 543.175781 94.660156 C 536.730469 87.273438 531.632812 87.671875 524.992188 96.085938 Z M 507.984375 231.578125 C 522.578125 236.453125 536.296875 244.191406 546.335938 253.199219 C 551.734375 258.039062 551.871094 259.152344 547.644531 263.996094 C 543.421875 268.835938 541.160156 268.316406 525.628906 258.953125 C 475.933594 228.992188 421.78125 239.699219 383.539062 287.046875 C 362.003906 313.699219 352.492188 342.109375 352.902344 378.527344 C 353.34375 417.535156 361.28125 437.769531 392.550781 479.582031 C 426.699219 525.242188 429.117188 531.199219 431 574.40625 L 432.539062 609.703125 L 477.960938 610.679688 L 523.378906 611.652344 L 523.378906 629.113281 L 415.605469 629.113281 L 415.605469 599.589844 C 415.605469 575.0625 414.523438 568.492188 409.21875 560.765625 C 401.507812 549.527344 394.980469 549.191406 365.585938 558.527344 C 339.535156 566.796875 316.289062 567.722656 311.191406 560.683594 C 308.964844 557.609375 308.402344 550.351562 309.679688 541.183594 C 311.25 529.941406 310.492188 525.027344 306.390625 519.832031 C 303.464844 516.125 301.972656 511.402344 303.085938 509.34375 C 304.195312 507.28125 302.945312 502.066406 300.308594 497.746094 C 297.667969 493.429688 295.511719 487.472656 295.511719 484.503906 C 295.511719 481.539062 290.660156 474.679688 284.730469 469.257812 C 278.804688 463.835938 273.953125 457.183594 273.953125 454.472656 C 273.953125 451.761719 279.726562 441.90625 286.785156 432.566406 C 305.214844 408.171875 309.894531 393.011719 311.957031 351.023438 C 313.464844 320.394531 315.078125 311.894531 322.230469 296.828125 C 335.542969 268.796875 359.871094 249.667969 400.207031 235.527344 C 422.738281 227.628906 488.917969 225.203125 507.984375 231.578125 Z M 583.679688 298.277344 C 597.222656 322.410156 601.914062 343.316406 601.6875 378.527344 C 601.453125 415.207031 594.769531 441.464844 580.582031 461.46875 C 573.894531 470.894531 572.558594 471.476562 568.394531 466.761719 C 564.21875 462.03125 564.9375 458.664062 575.113281 435.21875 C 585.738281 410.75 586.507812 406.808594 586.492188 376.984375 C 586.480469 348.234375 585.464844 342.539062 576.449219 320.699219 C 568.746094 302.019531 567.234375 295.28125 569.914062 291.582031 C 574.902344 284.695312 576.492188 285.46875 583.679688 298.277344 Z M 455.574219 348.5625 C 444.386719 355.195312 440.238281 363.789062 440.238281 380.332031 C 440.238281 416.175781 483.75 426.417969 497.269531 393.757812 C 503.765625 378.066406 500.902344 363.585938 489.046875 352.152344 C 478.484375 341.964844 468.507812 340.898438 455.574219 348.5625 Z M 501.824219 650.5625 C 501.824219 652.652344 497.777344 659.003906 492.824219 664.679688 C 486.183594 672.289062 480.890625 674.996094 472.65625 674.996094 C 454.75 674.996094 440.238281 663.808594 440.238281 650 C 440.238281 648.21875 454.09375 646.761719 471.03125 646.761719 C 490.972656 646.761719 501.824219 648.097656 501.824219 650.5625 Z M 501.824219 650.5625 " fill-opacity="1" fill-rule="evenodd"/><path fill="#ff6d1f" d="M 631.5 475.457031 C 614.988281 494.183594 612.03125 495.945312 598.945312 496.335938 C 584.699219 496.761719 584.519531 496.617188 546.449219 454.316406 L 508.253906 411.875 L 513.480469 395.199219 C 518.304688 379.824219 518.332031 377.316406 513.824219 362.9375 L 508.933594 347.347656 L 551.253906 298.9375 L 593.570312 250.527344 L 603.585938 254.523438 C 636.609375 267.722656 668.070312 244.203125 668.097656 206.292969 C 668.113281 189.039062 663.003906 175.855469 651.566406 163.609375 C 641.933594 153.296875 617.378906 149.558594 603.273438 156.257812 C 594.03125 160.644531 593.363281 160.28125 577.3125 142.109375 C 561.976562 124.746094 560.871094 122.371094 561.355469 107.746094 C 561.789062 94.515625 560.507812 90.691406 553.234375 83.519531 C 541.433594 71.886719 526.667969 72.199219 516.101562 84.304688 C 505.664062 96.269531 505.652344 110.101562 516.058594 124.28125 C 523.148438 133.941406 525.828125 135.179688 538.027344 134.457031 C 551.203125 133.671875 552.714844 134.609375 567.160156 152.425781 C 579.101562 167.15625 581.929688 172.835938 580.253906 178.695312 C 575.796875 194.238281 575.25 212.640625 578.863281 225.191406 L 582.609375 238.199219 L 540.273438 286.8125 L 497.941406 335.425781 L 487.664062 330.507812 C 473.738281 323.835938 462.234375 324.324219 449.429688 332.121094 C 416.046875 352.453125 416.554688 405.339844 450.332031 426.171875 L 461.777344 433.230469 L 461.785156 513.527344 L 461.792969 593.820312 L 523.382812 593.820312 L 523.449219 573.527344 C 523.523438 551.214844 529.96875 531.484375 542.917969 513.898438 C 552.414062 501.007812 552.902344 497.582031 546.152344 491.160156 C 541.886719 487.101562 540 488.125 532.328125 498.671875 C 518.042969 518.308594 507.984375 544.132812 507.984375 561.175781 L 507.984375 576.558594 L 493.359375 575.484375 L 478.730469 574.40625 L 477.898438 503.671875 L 477.066406 432.933594 L 488.464844 428.214844 L 499.859375 423.492188 L 536.273438 467.183594 C 568.324219 505.640625 572.476562 512.011719 570.933594 520.328125 C 566.96875 541.683594 585.03125 561.285156 604.761719 557.042969 C 618.875 554.007812 626.449219 541.3125 625.757812 521.855469 C 625.292969 508.820312 632.351562 502.691406 646.386719 486.375 Z M 631.5 475.457031 " fill-opacity="1" fill-rule="nonzero"/><g clip-path="url(#9a59390acd)"><path fill="#ff6d1f" d="M 554.171875 83.507812 C 561.617188 90.671875 562.929688 94.492188 562.484375 107.703125 C 561.988281 122.308594 563.117188 124.683594 578.808594 142.019531 C 595.230469 160.171875 595.914062 160.53125 605.367188 156.152344 C 619.800781 149.460938 644.921875 153.195312 654.773438 163.492188 C 666.476562 175.726562 671.699219 188.894531 671.683594 206.125 C 671.65625 243.984375 639.472656 267.472656 605.6875 254.292969 L 595.441406 250.300781 L 552.148438 298.644531 L 508.855469 346.996094 L 513.855469 362.566406 C 518.472656 376.925781 518.441406 379.429688 513.507812 394.785156 L 508.15625 411.441406 L 547.238281 453.828125 C 586.183594 496.070312 586.367188 496.214844 600.9375 495.789062 C 614.328125 495.402344 617.121094 493.644531 634.011719 474.941406 C 648.925781 458.425781 651.886719 453.320312 649.476562 448.277344 C 641.8125 432.257812 649.84375 406.519531 665.292969 397.582031 C 681.289062 388.324219 696.082031 390.613281 708.242188 404.21875 C 717.382812 414.449219 718.953125 418.628906 718.953125 432.769531 C 718.953125 447.035156 717.40625 451.066406 707.8125 461.800781 C 697.042969 473.851562 696.070312 474.199219 678.238281 472.390625 L 659.800781 470.519531 L 643.820312 488.65625 C 629.460938 504.949219 627.894531 508.261719 628.367188 521.277344 C 629.078125 540.710938 621.328125 553.390625 606.890625 556.421875 C 586.703125 560.65625 568.226562 541.082031 572.285156 519.75 C 573.863281 511.449219 569.613281 505.085938 536.824219 466.679688 L 499.574219 423.042969 L 476.253906 432.472656 L 477.957031 573.761719 L 492.917969 574.839844 L 507.882812 575.914062 L 507.882812 560.546875 C 507.882812 543.527344 518.171875 517.734375 532.789062 498.125 C 540.636719 487.589844 542.566406 486.570312 546.929688 490.621094 C 553.835938 497.035156 553.339844 500.457031 543.625 513.332031 C 530.375 530.894531 523.78125 550.601562 523.703125 572.882812 L 523.636719 593.148438 L 460.628906 593.148438 L 460.621094 512.960938 L 460.613281 432.769531 L 448.90625 425.71875 C 414.351562 404.914062 413.828125 352.09375 447.976562 331.789062 C 461.082031 324 472.847656 323.515625 487.09375 330.175781 L 497.609375 335.089844 L 584.226562 237.988281 L 580.398438 225 C 576.699219 212.460938 577.257812 194.085938 581.816406 178.5625 C 583.535156 172.707031 580.640625 167.035156 568.421875 152.324219 C 553.644531 134.53125 552.097656 133.597656 538.621094 134.378906 C 526.136719 135.101562 523.398438 133.863281 516.144531 124.21875 C 505.496094 110.058594 505.511719 96.242188 516.1875 84.292969 C 526.996094 72.199219 542.105469 71.890625 554.171875 83.507812 Z M 525.28125 96.058594 C 520.011719 102.574219 519.988281 103.582031 524.867188 111.917969 C 530.605469 121.722656 533.652344 122.617188 542.746094 117.175781 C 550.109375 112.765625 550.644531 102.199219 543.886719 94.636719 C 537.292969 87.257812 532.078125 87.65625 525.28125 96.058594 Z M 507.882812 231.375 C 522.8125 236.246094 536.851562 243.972656 547.121094 252.96875 C 552.640625 257.804688 552.78125 258.914062 548.460938 263.75 C 544.136719 268.585938 541.824219 268.070312 525.933594 258.71875 C 475.09375 228.796875 419.695312 239.484375 380.574219 286.769531 C 358.542969 313.390625 348.8125 341.765625 349.230469 378.136719 C 349.679688 417.089844 357.800781 437.300781 389.792969 479.058594 C 424.726562 524.65625 427.199219 530.613281 429.128906 573.761719 L 430.703125 609.011719 L 477.167969 609.988281 L 523.636719 610.960938 L 523.636719 628.398438 L 413.375 628.398438 L 413.375 598.910156 C 413.375 574.417969 412.269531 567.855469 406.84375 560.140625 C 398.953125 548.914062 392.277344 548.578125 362.207031 557.902344 C 335.554688 566.164062 311.773438 567.085938 306.558594 560.058594 C 304.277344 556.984375 303.707031 549.738281 305.011719 540.578125 C 306.621094 529.351562 305.84375 524.445312 301.648438 519.257812 C 298.652344 515.554688 297.128906 510.835938 298.265625 508.78125 C 299.402344 506.722656 298.125 501.515625 295.425781 497.199219 C 292.722656 492.890625 290.515625 486.9375 290.515625 483.976562 C 290.515625 481.015625 285.554688 474.160156 279.488281 468.746094 C 273.425781 463.332031 268.464844 456.6875 268.464844 453.980469 C 268.464844 451.273438 274.371094 441.429688 281.585938 432.105469 C 300.441406 407.738281 305.230469 392.601562 307.339844 350.664062 C 308.886719 320.078125 310.53125 311.589844 317.851562 296.542969 C 331.46875 268.546875 356.359375 249.441406 397.625 235.320312 C 420.675781 227.429688 488.375 225.007812 507.882812 231.375 Z M 585.324219 297.988281 C 599.179688 322.089844 603.980469 342.972656 603.746094 378.136719 C 603.507812 414.769531 596.671875 440.988281 582.15625 460.96875 C 575.3125 470.382812 573.945312 470.964844 569.6875 466.253906 C 565.414062 461.53125 566.148438 458.167969 576.558594 434.753906 C 587.425781 410.316406 588.214844 406.378906 588.199219 376.59375 C 588.1875 347.882812 587.148438 342.191406 577.925781 320.378906 C 570.042969 301.726562 568.496094 295 571.242188 291.300781 C 576.34375 284.425781 577.96875 285.195312 585.324219 297.988281 Z M 454.265625 348.207031 C 442.820312 354.832031 438.578125 363.414062 438.578125 379.9375 C 438.578125 415.734375 483.089844 425.960938 496.921875 393.34375 C 503.566406 377.675781 500.636719 363.214844 488.507812 351.792969 C 477.703125 341.621094 467.496094 340.554688 454.265625 348.207031 Z M 668.546875 416.90625 C 655.867188 431.09375 665.195312 455.679688 683.261719 455.679688 C 695.09375 455.679688 703.199219 446.226562 703.199219 432.425781 C 703.199219 412.167969 681.476562 402.441406 668.546875 416.90625 Z M 501.582031 649.816406 C 501.582031 651.902344 497.441406 658.25 492.375 663.917969 C 485.582031 671.515625 480.167969 674.21875 471.742188 674.21875 C 453.425781 674.21875 438.578125 663.046875 438.578125 649.257812 C 438.578125 647.476562 452.753906 646.019531 470.082031 646.019531 C 490.480469 646.019531 501.582031 647.359375 501.582031 649.816406 Z M 501.582031 649.816406 " fill-opacity="1" fill-rule="evenodd"/></g></svg>