<svg width="1456" height="412" viewBox="0 0 1456 412" fill="none" xmlns="http://www.w3.org/2000/svg">
<path d="M100.649 15.991C110.483 15.991 118.878 20.5548 125.833 29.6824L148.498 58.9529C155.454 68.0805 158.932 79.0972 158.932 92.0017V151.907C158.865 152.045 158.797 152.183 158.73 152.322C153.795 162.668 152.684 168.504 151.643 189.535C150.219 218.368 146.99 228.777 134.274 245.529C129.407 251.942 125.424 258.711 125.424 260.572C125.424 262.433 128.77 267.002 132.859 270.724C136.949 274.447 140.296 279.158 140.296 281.194C140.296 283.232 141.785 287.323 143.605 290.287C145.426 293.253 146.288 296.835 145.521 298.251C144.755 299.664 145.783 302.907 147.804 305.454C150.633 309.021 151.156 312.395 150.072 320.114C149.191 326.41 149.578 331.393 151.116 333.507C152.344 335.194 155.1 336.214 158.932 336.586V337.029H95.2529V113.719C95.2529 110.571 94.4132 107.896 92.7344 105.693L88.7773 100.5C87.0984 98.2966 85.0596 97.1951 82.6611 97.1951H0V15.991H100.649ZM287.009 97.1951H176.92V15.991H287.009V97.1951Z" fill="#FF6D1F"/>
<path d="M109.764 15.991C119.598 15.991 127.992 20.5548 134.948 29.6824L157.613 58.9529C164.568 68.0805 168.046 79.0972 168.046 92.0017V151.908C167.98 152.046 167.911 152.184 167.845 152.322C162.91 162.668 161.799 168.504 160.758 189.535C159.335 218.368 156.105 228.777 143.389 245.529C138.522 251.942 134.539 258.711 134.539 260.572C134.539 262.433 137.885 267.002 141.975 270.724C146.065 274.447 149.411 279.158 149.411 281.194C149.411 283.232 150.901 287.323 152.721 290.287C154.542 293.253 155.404 296.835 154.637 298.251C153.87 299.664 154.898 302.907 156.918 305.454C159.748 309.021 160.272 312.395 159.188 320.114C158.306 326.41 158.693 331.393 160.231 333.507C161.459 335.194 164.215 336.214 168.046 336.586V337.029H104.368V113.719C104.368 110.571 103.528 107.896 101.849 105.693L97.8921 100.5C96.2132 98.2966 94.1743 97.1951 91.7759 97.1951H9.11475V15.991H109.764ZM296.124 97.1951H186.035V15.991H296.124V97.1951Z" fill="black"/>
<path fill-rule="evenodd" clip-rule="evenodd" d="M298.949 14.4748C295.83 18.956 295.815 19.6491 298.703 25.3808C302.1 32.1207 303.902 32.7363 309.283 28.9943C313.641 25.9624 313.958 18.6991 309.959 13.4981C306.056 8.42564 302.97 8.6995 298.949 14.4748ZM288.653 107.515C297.487 110.864 305.795 116.177 311.872 122.362C315.14 125.687 315.222 126.45 312.664 129.775C310.107 133.1 308.738 132.744 299.335 126.314C269.249 105.741 236.464 113.091 213.312 145.603C200.275 163.906 194.516 183.416 194.764 208.422C195.03 235.207 199.837 249.101 218.768 277.813C239.441 309.166 240.905 313.26 242.046 342.929L242.978 367.164L270.476 367.836L297.974 368.505V374.5V380.494H265.349H232.724V360.221C232.724 343.38 232.07 338.867 228.86 333.562C224.19 325.843 220.239 325.613 202.443 332.023C186.671 337.704 172.598 338.339 169.512 333.506C168.162 331.393 167.823 326.41 168.597 320.114C169.548 312.395 169.089 309.021 166.606 305.454C164.833 302.906 163.931 299.664 164.604 298.251C165.277 296.835 164.52 293.253 162.922 290.287C161.324 287.323 160.017 283.232 160.017 281.194C160.017 279.158 157.081 274.447 153.492 270.724C149.904 267.001 146.968 262.433 146.968 260.572C146.968 258.711 150.463 251.942 154.734 245.529C165.892 228.777 168.725 218.368 169.975 189.535C170.888 168.504 171.863 162.668 176.194 152.322C184.253 133.074 198.983 119.938 223.403 110.227C237.044 104.803 277.109 103.138 288.653 107.515ZM334.48 153.315C342.679 169.887 345.52 184.245 345.382 208.422C345.241 233.61 341.195 251.639 332.605 265.375C328.555 271.849 327.746 272.248 325.226 269.011C322.698 265.763 323.132 263.451 329.294 247.351C335.725 230.549 336.192 227.842 336.182 207.363C336.175 187.621 335.56 183.709 330.103 168.712C325.438 155.887 324.523 151.26 326.147 148.718C329.165 143.989 330.129 144.52 334.48 153.315ZM256.923 187.846C250.15 192.4 247.638 198.301 247.638 209.66C247.638 234.274 273.981 241.307 282.167 218.879C286.098 208.107 284.365 198.163 277.187 190.311C270.793 183.316 264.753 182.582 256.923 187.846ZM284.924 395.222C284.924 396.656 282.472 401.019 279.475 404.916C275.455 410.141 272.251 412 267.264 412C256.425 412 247.638 404.317 247.638 394.836C247.638 393.613 256.028 392.612 266.281 392.612C278.354 392.612 284.924 393.53 284.924 395.222Z" fill="#FF6D1F"/>
<path d="M363.431 274.982C353.434 287.842 351.645 289.051 343.721 289.318C335.097 289.611 334.989 289.511 311.941 260.465L288.815 231.322L291.98 219.871C294.902 209.311 294.918 207.591 292.187 197.717L289.227 187.012L314.847 153.768L340.468 120.527L346.531 123.273C366.525 132.335 385.571 116.184 385.587 90.1526C385.597 78.3063 382.504 69.2519 375.58 60.8422C369.748 53.7606 354.883 51.1941 346.341 55.7939C340.748 58.8064 340.343 58.5568 330.625 46.078C321.339 34.1565 320.671 32.5255 320.964 22.4823C321.227 13.3988 320.451 10.7717 316.046 5.84703C308.904 -2.14099 299.963 -1.92772 293.567 6.38506C287.249 14.6009 287.239 24.1012 293.541 33.8366C297.834 40.4698 299.454 41.3205 306.842 40.8237C314.818 40.2857 315.733 40.9279 324.478 53.162C331.708 63.2779 333.421 67.1774 332.405 71.2029C329.708 81.8762 329.376 94.5102 331.564 103.131L333.831 112.062L308.201 145.443L282.571 178.825L276.35 175.447C267.918 170.867 260.955 171.201 253.201 176.557C232.993 190.517 233.3 226.834 253.75 241.14L260.679 245.987L260.683 301.123L260.688 356.258H279.331H297.974L298.015 342.323C298.06 327.004 301.962 313.454 309.803 301.38C315.552 292.526 315.847 290.173 311.76 285.765C309.176 282.977 308.035 283.68 303.391 290.922C294.741 304.407 288.652 322.14 288.652 333.843V344.407L279.797 343.668L270.942 342.929L270.439 294.356L269.935 245.783L276.835 242.541L283.735 239.298L305.78 269.301C325.183 295.708 327.698 300.083 326.764 305.793C324.363 320.458 335.297 333.918 347.243 331.005C355.787 328.921 360.373 320.203 359.954 306.842C359.672 297.892 363.947 293.683 372.444 282.479L363.431 274.982Z" fill="#FF6D1F"/>
<path d="M427.451 129.521C427.451 131.382 427.298 133.074 426.993 134.597C426.688 135.951 426.154 137.812 425.392 140.18L424.019 144.748C423.866 145.256 423.561 145.848 423.104 146.525C422.798 147.032 422.112 148.725 421.044 151.601C420.281 153.462 419.366 155.154 418.298 156.677L421.044 159.215C423.485 155.155 425.849 151.602 428.138 148.556C430.579 145.51 433.63 142.549 437.291 139.672C443.393 134.935 450.717 131.89 459.26 130.536C463.226 129.86 467.803 129.521 472.99 129.521H481.915L479.627 184.087H465.21C453.158 184.087 443.928 186.202 437.521 190.432C430.808 195 427.451 201.26 427.451 209.212V350.324H375.962V280.953C376.317 280.479 376.686 279.987 377.072 279.478L386.529 267.009L397.439 268.296C407.993 269.54 408.567 269.299 414.941 261.013C420.618 253.634 421.533 250.861 421.533 241.053C421.533 231.33 420.604 228.455 415.194 221.422C407.998 212.067 399.244 210.495 389.779 216.859C380.637 223.005 375.885 240.701 380.419 251.716C381.544 254.447 380.692 257.206 375.962 263.81V129.521H427.451ZM391.705 230.147C399.356 220.201 412.212 226.887 412.212 240.815C412.212 250.305 407.415 256.806 400.413 256.806C389.721 256.806 384.201 239.902 391.705 230.147Z" fill="#FF6D1F"/>
<path d="M422.895 129.521C422.895 131.382 422.742 133.074 422.437 134.597C422.131 135.951 421.598 137.812 420.835 140.18L419.462 144.748C419.309 145.256 419.004 145.848 418.546 146.525C418.241 147.032 417.554 148.725 416.486 151.601C415.724 153.462 414.808 155.154 413.74 156.677L416.486 159.215C418.927 155.155 421.293 151.602 423.581 148.556C426.022 145.51 429.073 142.549 432.734 139.672C438.837 134.935 446.16 131.89 454.703 130.536C458.67 129.86 463.247 129.521 468.434 129.521H477.358L475.07 184.087H460.653C448.601 184.087 439.37 186.202 432.963 190.432C426.251 195 422.895 201.26 422.895 209.212V350.324H371.405V280.951C371.76 280.477 372.129 279.986 372.515 279.478L381.973 267.009L392.882 268.296C403.435 269.54 404.01 269.299 410.384 261.013C416.06 253.633 416.977 250.861 416.977 241.053C416.977 231.33 416.048 228.455 410.638 221.422C403.442 212.067 394.687 210.495 385.222 216.859C376.08 223.005 371.328 240.701 375.861 251.716C376.987 254.447 376.135 257.206 371.405 263.81V129.521H422.895ZM387.147 230.147C394.798 220.201 407.655 226.887 407.655 240.815C407.655 250.305 402.858 256.806 395.855 256.806C385.164 256.806 379.644 239.902 387.147 230.147Z" fill="black"/>
<path d="M989.591 180.096C995.369 180.096 1001.03 180.725 1006.6 181.98L1006.76 182.015L1006.91 182.046C1012.52 183.144 1017.02 184.78 1020.62 186.792C1027.9 191.149 1032.49 196.972 1034.8 204.608C1035.35 206.785 1035.82 209.119 1036.2 211.616C1036.56 213.939 1036.75 216.442 1036.75 219.136V349.09H984.486V227.794C984.486 225.62 984.271 222.513 982.866 219.538C981.81 217.197 980.193 215.032 978.712 213.257L978.364 212.841L977.975 212.46C975.675 210.204 972.89 208.736 970.414 207.724C968.127 206.789 965.589 205.993 962.94 205.674C960.36 205.337 957.863 205.144 955.49 205.144C953.286 205.144 951.1 205.312 948.955 205.678C947.303 205.844 945.592 206.071 943.827 206.357C941.418 206.712 938.949 207.284 936.615 208.226C935.344 208.641 933.717 209.174 931.732 209.823C930.395 210.26 929.098 210.787 927.841 211.392C927.046 211.744 926.193 212.145 925.297 212.584L919.209 215.569V349.09H880.664V184.12L913.285 182.26C913.088 182.51 912.879 182.772 912.657 183.044L912.55 183.176L912.448 183.311C911.895 184.034 911.334 184.765 910.78 185.49C910.331 185.968 909.796 186.515 909.165 187.134L898.963 197.139L922.937 210.201L928.906 204.451C932.745 200.752 936.179 197.978 939.205 196L939.329 195.92L939.449 195.836C942.771 193.536 946.555 191.25 950.823 188.988C954.363 187.163 958.372 185.53 962.884 184.12C967.385 182.712 971.718 181.706 975.889 181.077C978.037 180.825 980.184 180.636 982.328 180.509L982.61 180.492L982.891 180.461C985.129 180.217 987.362 180.096 989.591 180.096Z" fill="black"/>
<path fill-rule="evenodd" clip-rule="evenodd" d="M812.897 92.6891C811.661 93.4316 810.133 94.9453 809.502 96.0526C808.218 98.3015 808.572 98.1903 797.849 99.7121C772.664 103.287 747.541 115.919 728.349 134.659C710.191 152.387 698.362 174.259 693.122 199.792C691.729 206.58 691.542 209.392 691.542 223.559C691.542 237.83 691.722 240.488 693.147 247.326C701.314 286.518 725.976 318.307 762.049 336.142C777.564 343.812 798.758 349.062 814.295 349.084L818.2 349.09V346.179V343.269L810.56 342.861C766.095 340.49 724.524 311.585 706.806 270.719C690.665 233.491 694.635 190.709 717.333 157.279C732.364 135.141 753.293 119.203 778.845 110.435C785.594 108.118 798.834 105.179 805.375 104.543C808.273 104.261 808.6 104.388 809.699 106.222C810.895 108.217 815.373 110.707 817.816 110.734C820.547 110.765 824.721 108.106 826.305 105.328C831.066 96.9765 821.214 87.69 812.897 92.6891ZM806.315 130.212C774.291 134.493 745.795 154.881 732.363 183.123C725.314 197.943 722.755 210.369 723.345 226.907C723.872 241.637 726.066 250.701 732.275 263.796C736.835 273.414 742.34 281.019 750.953 289.6C767.788 306.372 788.018 315.569 811.999 317.354L818.2 317.816V314.803V311.79L811.977 311.327C790.208 309.707 770.628 300.784 755.029 285.376C743.3 273.79 735.441 259.82 731.176 242.974C729.209 235.206 728.726 218.425 730.213 209.501C737.573 165.319 777.468 133.454 822.557 135.744C831.713 136.209 840.443 137.861 848.082 140.574C878.2 151.272 900.568 177.115 906.211 207.732L907.366 213.998L905.215 215.657C897.948 221.264 900.704 231.87 909.739 233.065C915.549 233.833 921.555 227.818 920.392 222.397C919.694 219.145 917.59 216.119 915.407 215.228C913.593 214.487 913.403 214.025 912.359 207.831C905.883 169.391 875.413 138.854 835.857 131.164C829.011 129.833 813.01 129.318 806.315 130.212ZM805.925 161.255C769.392 168.759 746.733 204.327 756.06 239.529C762.873 265.248 786.194 284.669 812.597 286.613L818.2 287.025V283.914V280.801L814.635 280.79C802.755 280.751 787.603 274.098 777.562 264.512C764.844 252.37 758.257 234.083 760.446 216.99C762.16 203.608 767.435 192.954 777.109 183.334C784.373 176.11 791.196 171.905 800.543 168.891C806.03 167.122 808.336 166.761 815.975 166.477C823.643 166.193 825.908 166.361 831.478 167.63C849.088 171.641 863.893 183.62 871.499 200.009C875.25 208.09 876.238 213.006 876.238 223.559C876.238 230.538 875.918 234.129 874.983 237.618C873.367 243.656 870.035 250.806 866.522 255.777C861.793 262.468 861.865 262.419 857.168 262.168C853.325 261.961 852.827 262.103 850.588 264.042C846.298 267.755 845.681 273.325 849.114 277.347C855.575 284.916 867.742 279.186 866.143 269.328C865.748 266.894 865.975 266.381 869.142 262.534C873.5 257.24 878.831 246.625 880.813 239.292C883.031 231.088 883.007 216.025 880.763 207.827C877.76 196.851 872.843 188.21 864.923 179.992C856.694 171.452 847.619 165.97 836.053 162.555C831.065 161.082 828.468 160.756 820.237 160.565C813.675 160.414 808.901 160.644 805.925 161.255ZM810.567 192.801C796.429 196.179 786.281 209.031 786.281 223.559C786.281 242.697 803.581 257.606 822.645 254.899C840.388 252.379 852.818 236.186 850.151 219.067C847.251 200.452 829.061 188.382 810.567 192.801Z" fill="#FF6D1F"/>
<path d="M990.604 178.862H1456V348.807H1011.68L990.604 178.862Z" fill="black"/>
<path d="M1306.7 193.22H1353.28C1353.28 193.896 1353.14 194.798 1352.87 195.925C1352.73 196.939 1352.31 198.179 1351.62 199.644C1350.93 201.222 1350.38 202.518 1349.97 203.533C1349.55 204.547 1348.73 205.9 1347.48 207.59C1347.07 208.267 1346.66 208.943 1346.24 209.619C1345.83 210.183 1345.41 210.746 1345 211.31L1347.48 213.001C1358.94 198.686 1373.92 191.529 1392.41 191.529C1402.9 191.529 1411.18 193.783 1417.25 198.292C1423.46 202.913 1427.54 209.676 1429.47 218.58C1429.88 220.834 1430.23 223.257 1430.5 225.85C1430.78 228.33 1430.92 230.978 1430.92 233.796V299.226C1430.92 304.749 1430.37 309.933 1429.26 314.78C1428.3 319.514 1426.71 323.515 1424.5 326.784C1422.29 330.165 1419.67 332.983 1416.63 335.237C1413.6 337.379 1409.87 339.069 1405.45 340.309C1401.17 341.436 1396.27 342 1390.75 342C1384.54 342 1379.09 341.38 1374.4 340.14C1371.09 339.351 1368.46 338.619 1366.53 337.942C1364.74 337.266 1362.46 336.252 1359.7 334.899C1357.35 333.885 1355.21 332.701 1353.28 331.349V391.03H1306.7V193.22ZM1351.21 243.264V290.265C1351.21 293.985 1352.11 297.14 1353.9 299.733C1354.45 300.635 1355.42 301.649 1356.8 302.776C1358.32 303.79 1360.04 304.523 1361.98 304.974C1363.63 305.425 1365.56 305.65 1367.77 305.65C1369.71 305.65 1371.57 305.481 1373.36 305.143C1375.16 304.692 1376.81 303.96 1378.33 302.945C1379.57 302.043 1380.61 301.085 1381.44 300.071C1382.4 298.944 1383.16 297.422 1383.71 295.506C1384.13 293.703 1384.34 291.956 1384.34 290.265V243.264C1384.34 239.544 1383.44 236.332 1381.64 233.627C1381.09 232.838 1380.06 231.936 1378.54 230.922C1377.16 229.795 1375.57 229.006 1373.78 228.555C1371.98 228.104 1369.98 227.879 1367.77 227.879C1365.84 227.879 1363.98 228.104 1362.18 228.555C1360.39 228.893 1358.8 229.569 1357.42 230.584C1356.04 231.485 1354.87 232.5 1353.9 233.627C1353.07 234.641 1352.45 236.107 1352.04 238.023C1351.49 239.826 1351.21 241.573 1351.21 243.264Z" fill="#FF6D1F"/>
<path d="M1172.93 193.22H1219.06C1219.06 193.896 1218.92 194.798 1218.65 195.925C1218.51 196.939 1218.1 198.179 1217.42 199.644C1216.74 201.222 1216.19 202.518 1215.78 203.533C1215.37 204.547 1214.55 205.9 1213.32 207.59C1212.91 208.267 1212.5 208.943 1212.09 209.619C1211.68 210.183 1211.27 210.746 1210.86 211.31L1213.32 213.001C1224.66 198.686 1239.5 191.529 1257.81 191.529C1268.2 191.529 1276.4 193.783 1282.42 198.292C1288.57 202.913 1292.6 209.676 1294.51 218.58C1294.92 220.834 1295.27 223.257 1295.54 225.85C1295.81 228.33 1295.95 230.978 1295.95 233.796V299.226C1295.95 304.749 1295.4 309.933 1294.31 314.78C1293.35 319.514 1291.78 323.515 1289.59 326.784C1287.41 330.165 1284.81 332.983 1281.8 335.237C1278.79 337.379 1275.1 339.069 1270.73 340.309C1266.49 341.436 1261.64 342 1256.17 342C1250.02 342 1244.62 341.38 1239.97 340.14C1236.69 339.351 1234.1 338.619 1232.18 337.942C1230.41 337.266 1228.15 336.252 1225.42 334.899C1223.09 333.885 1220.97 332.701 1219.06 331.349V391.03H1172.93V193.22ZM1217.01 243.264V290.265C1217.01 293.985 1217.9 297.14 1219.67 299.733C1220.22 300.635 1221.18 301.649 1222.55 302.776C1224.05 303.79 1225.76 304.523 1227.67 304.974C1229.31 305.425 1231.23 305.65 1233.41 305.65C1235.33 305.65 1237.17 305.481 1238.95 305.143C1240.73 304.692 1242.37 303.96 1243.87 302.945C1245.1 302.043 1246.12 301.085 1246.95 300.071C1247.9 298.944 1248.65 297.422 1249.2 295.506C1249.61 293.703 1249.82 291.956 1249.82 290.265V243.264C1249.82 239.544 1248.93 236.332 1247.15 233.627C1246.6 232.838 1245.58 231.936 1244.07 230.922C1242.71 229.795 1241.14 229.006 1239.36 228.555C1237.58 228.104 1235.6 227.879 1233.41 227.879C1231.5 227.879 1229.65 228.104 1227.88 228.555C1226.1 228.893 1224.53 229.569 1223.16 230.584C1221.79 231.485 1220.63 232.5 1219.67 233.627C1218.85 234.641 1218.24 236.107 1217.83 238.023C1217.28 239.826 1217.01 241.573 1217.01 243.264Z" fill="#FF6D1F"/>
<path d="M1037.96 302.448C1037.96 296.569 1038.93 291.198 1040.87 286.336C1042.81 281.361 1045.86 276.895 1050.02 272.938C1054.18 268.98 1059.31 265.645 1065.41 262.931C1071.65 260.104 1079 257.673 1087.46 255.638C1091.76 254.621 1096.33 253.773 1101.18 253.094C1106.04 252.303 1111.17 251.624 1116.57 251.059V239.865C1116.57 238.735 1116.3 237.491 1115.74 236.134C1115.33 234.664 1114.77 233.534 1114.08 232.742C1113.25 231.838 1112.35 231.046 1111.38 230.368C1110.4 229.576 1109.09 228.954 1107.42 228.502C1105.76 228.163 1104.23 227.993 1102.85 227.993C1101.6 227.993 1100.08 228.163 1098.27 228.502C1096.61 228.841 1095.29 229.35 1094.32 230.028C1092.1 231.385 1090.58 233.251 1089.75 235.625C1089.19 236.982 1088.91 238.226 1088.91 239.356V243.257H1043.16V233.251C1043.16 228.276 1043.99 223.527 1045.65 219.004C1047.46 214.482 1050.02 210.524 1053.35 207.132C1060.14 200.461 1069.92 195.825 1082.67 193.225C1085.72 192.66 1088.98 192.264 1092.45 192.038C1096.05 191.699 1099.73 191.529 1103.47 191.529C1122.47 191.529 1137.23 195.204 1147.77 202.553C1158.17 209.902 1163.37 220.135 1163.37 233.251V340.778H1116.57C1116.57 339.76 1116.71 338.573 1116.99 337.216C1117.27 335.747 1117.61 334.503 1118.03 333.485C1118.59 332.241 1119.14 331.054 1119.69 329.924C1120.39 328.68 1121.15 327.38 1121.98 326.023C1122.68 325.005 1123.65 323.874 1124.89 322.631L1122.4 320.935C1120.18 324.101 1117.89 326.758 1115.54 328.906C1113.32 330.941 1110.89 332.807 1108.26 334.503C1105.76 336.199 1102.99 337.669 1099.94 338.912C1097.02 340.043 1093.7 340.891 1089.95 341.456C1088.29 341.796 1086.56 342.022 1084.75 342.135C1083.09 342.361 1081.36 342.474 1079.55 342.474C1074.98 342.474 1070.47 341.909 1066.04 340.778C1061.74 339.76 1057.65 337.951 1053.76 335.351C1050.3 333.203 1047.39 330.432 1045.03 327.04C1042.67 323.535 1040.94 319.804 1039.83 315.847C1039.14 313.811 1038.65 311.663 1038.37 309.402C1038.1 307.14 1037.96 304.823 1037.96 302.448ZM1085.79 296.682C1085.79 298.378 1086 299.961 1086.42 301.431C1086.97 302.787 1087.6 303.805 1088.29 304.483C1090.09 306.745 1092.52 308.158 1095.57 308.723C1097.23 309.176 1098.83 309.402 1100.35 309.402C1105.07 309.402 1110.47 307.988 1116.57 305.162V273.786C1112.42 274.916 1108.67 276.047 1105.34 277.178C1102.02 278.308 1099.1 279.665 1096.61 281.248C1094.39 282.605 1092.38 284.075 1090.58 285.658C1088.91 287.241 1087.73 288.993 1087.04 290.915C1086.21 292.951 1085.79 294.873 1085.79 296.682Z" fill="#FF6D1F"/>
<path d="M687.172 70.9129C687.271 70.8864 687.412 70.8544 687.574 70.8443C687.688 70.8371 688.025 70.8224 688.433 71.0108L688.635 71.1186C689.096 71.4 689.495 71.8948 689.634 72.5618C689.73 73.0223 689.671 73.4212 689.604 73.6837L689.539 73.8979C689.383 74.3466 689.121 74.6973 689 74.8554C688.676 75.2806 688.188 75.7956 687.623 76.353C686.74 77.2248 685.482 78.3816 683.872 79.8213L682.144 81.3555C639.897 118.645 609.835 177.367 594.833 252.288C590.01 276.379 586.734 302.117 585.583 324.842L585.582 324.855L585.478 327.021L585.478 327.027L585.478 327.035L584.872 340.499C584.794 342.208 584.601 343.782 584.323 344.948C584.263 345.197 584.189 345.486 584.08 345.801C583.968 346.122 583.842 346.409 583.711 346.64C583.644 346.757 583.556 346.905 583.411 347.079C583.262 347.259 583.104 347.402 582.945 347.506C582.765 347.623 582.56 347.708 582.311 347.729C582.035 347.753 581.707 347.697 581.377 347.53L581.354 347.519C581.293 347.487 581.221 347.445 581.154 347.401C581.122 347.38 581.098 347.365 581.088 347.358C581.085 347.356 581.082 347.354 581.082 347.354L581.084 347.354C581.078 347.35 581.088 347.357 581.079 347.351C581.079 347.351 581.074 347.348 581.07 347.344L581.041 347.324L580.83 347.168C580.691 347.061 580.513 346.919 580.294 346.743C579.869 346.399 579.285 345.916 578.564 345.313C577.119 344.106 575.1 342.397 572.659 340.316C568.995 337.193 564.367 333.223 559.276 328.829L554.049 324.307C543.365 315.053 529.981 303.502 520.146 295.042L511.725 287.811L510.054 286.394C492.822 271.919 476.702 262.695 464.784 257.063C458.634 254.157 453.604 252.208 450.122 250.988C448.381 250.378 447.027 249.95 446.114 249.677C445.664 249.542 445.317 249.443 445.082 249.379C444.952 249.342 444.853 249.316 444.827 249.309C444.819 249.307 444.811 249.305 444.804 249.303L444.777 249.296L444.75 249.289L437.724 247.501L493.096 229.6L493.826 230.218C506.013 240.522 538.295 268.382 551.319 279.827L561.03 288.361L563.028 275.426C568.002 243.235 578.57 206.17 589.963 181.646C603.168 153.222 620.139 127.714 639.504 107.195L640.325 106.338C649.001 97.4335 667.515 82.4712 677.35 76.4305L677.351 76.431L679.549 75.0895C681.601 73.8446 683.231 72.8835 684.454 72.2048C685.276 71.7479 685.948 71.3994 686.456 71.1762C686.698 71.07 686.946 70.9729 687.172 70.9129Z" fill="#FF6D1F"/>
<path d="M682.743 72.344C682.843 72.3175 682.984 72.2856 683.146 72.2754C683.259 72.2682 683.597 72.2535 684.005 72.4419L684.207 72.5498C684.668 72.8311 685.067 73.3259 685.206 73.993C685.302 74.4534 685.243 74.8524 685.176 75.1148L685.111 75.3291C684.954 75.7777 684.692 76.1284 684.572 76.2866C684.248 76.7117 683.76 77.2267 683.195 77.7842C682.312 78.656 681.054 79.8128 679.444 81.2524L677.716 82.7866C635.469 120.077 605.407 178.798 590.405 253.719C585.582 277.81 582.306 303.548 581.155 326.273L581.154 326.286L581.05 328.452L581.05 328.458L581.049 328.466L580.443 341.93C580.366 343.639 580.173 345.214 579.895 346.379C579.835 346.628 579.76 346.917 579.651 347.232C579.54 347.554 579.414 347.84 579.283 348.071C579.216 348.188 579.128 348.336 578.983 348.51C578.834 348.69 578.675 348.833 578.517 348.937C578.337 349.054 578.131 349.139 577.883 349.16C577.607 349.184 577.279 349.128 576.948 348.961L576.926 348.95C576.865 348.918 576.793 348.876 576.726 348.833C576.693 348.812 576.67 348.796 576.66 348.789C576.657 348.787 576.654 348.785 576.654 348.785L576.656 348.786C576.65 348.782 576.659 348.788 576.651 348.782C576.651 348.782 576.646 348.779 576.641 348.776L576.613 348.755L576.402 348.599C576.263 348.492 576.084 348.351 575.866 348.174C575.441 347.83 574.857 347.347 574.135 346.744C572.691 345.537 570.672 343.828 568.231 341.747C564.567 338.624 559.939 334.654 554.848 330.26L549.621 325.738C538.937 316.484 525.552 304.934 515.718 296.473L507.297 289.242L505.626 287.825C488.394 273.35 472.274 264.126 460.356 258.494C454.206 255.588 449.176 253.639 445.693 252.419C443.953 251.809 442.599 251.382 441.686 251.108C441.235 250.973 440.889 250.875 440.654 250.81C440.523 250.774 440.424 250.747 440.398 250.74C440.391 250.738 440.383 250.736 440.376 250.735L440.349 250.727L440.322 250.72L433.296 248.933L488.667 231.031L489.398 231.649C501.585 241.953 533.866 269.813 546.89 281.258L556.602 289.792L558.6 276.857C563.573 244.667 574.142 207.601 585.534 183.077C598.74 154.653 615.711 129.145 635.076 108.626L635.897 107.769C644.573 98.8646 663.087 83.9024 672.922 77.8617L672.923 77.8622L675.121 76.5206C677.173 75.2758 678.803 74.3147 680.025 73.6359C680.848 73.1791 681.52 72.8305 682.028 72.6074C682.27 72.5012 682.518 72.4041 682.743 72.344Z" fill="black"/>
<path d="M633.895 349.09V201.968H685.163V349.09H633.895ZM631.161 169.669C631.161 164.822 632.984 160.481 636.63 156.648C638.149 154.844 640.123 153.266 642.554 151.913C645.136 150.56 647.795 149.602 650.529 149.039C653.415 148.362 656.453 148.024 659.643 148.024C662.681 148.024 665.643 148.362 668.53 149.039C671.416 149.602 674.15 150.56 676.732 151.913C681.593 154.619 684.935 158.17 686.758 162.567C687.669 164.822 688.125 167.189 688.125 169.669C688.125 175.87 685.467 181.112 680.15 185.396C674.834 189.68 667.998 191.822 659.643 191.822C653.111 191.822 647.491 190.413 642.782 187.594C640.351 186.242 638.301 184.72 636.63 183.029C634.959 181.225 633.592 179.083 632.528 176.603C631.617 174.461 631.161 172.15 631.161 169.669Z" fill="black"/>
<rect x="635.718" y="278.324" width="13.6714" height="68.5197" fill="#FF6D1F"/>
<rect x="651.668" y="256.981" width="14.8106" height="89.8618" fill="#FF6D1F"/>
<rect x="668.758" y="231.146" width="14.8106" height="115.697" fill="#FF6D1F"/>
</svg>
